<svg id="Layer_1" data-name="Layer 1" xmlns="http://www.w3.org/2000/svg" xmlns:xlink="http://www.w3.org/1999/xlink" viewBox="0 0 16 16"><defs><style>.cls-1{fill:url(#linear-gradient);}.cls-2{fill:#fff;}</style><linearGradient id="linear-gradient" x1="7.3" y1="6.27" x2="8.56" y2="6.27" gradientUnits="userSpaceOnUse"><stop offset="0" stop-color="#f73859"/><stop offset="1" stop-color="#d1334f"/></linearGradient></defs><circle class="cls-1" cx="7.93" cy="6.27" r="0.63"/><path class="cls-2" d="M9.22,7A1.54,1.54,0,0,0,9,5.22l.6.16,1.09.29.18,0c.35.06.51-.1.43-.45A2.89,2.89,0,0,0,10.61,4l-.1-.12.69-.58a4.38,4.38,0,0,1,.33,5.54l-.76-.49A4.23,4.23,0,0,0,11,8a2.8,2.8,0,0,0,.22-.57A.37.37,0,0,0,11,6.9a2.47,2.47,0,0,0-1.61,0Z"/><path class="cls-2" d="M5.1,8.35l-.76.49A4.4,4.4,0,0,1,4.66,3.3l.69.58-.24.3a3,3,0,0,0-.51,1c-.1.4.08.57.47.48s.63-.16.94-.25l.91-.24a1.5,1.5,0,0,0-.28,1.73C6.42,6.89,6.2,6.83,6,6.8a2.26,2.26,0,0,0-1,.08c-.3.09-.41.26-.32.56A7.67,7.67,0,0,0,5,8.21.85.85,0,0,1,5.1,8.35Z"/><path class="cls-2" d="M4.48,8.87l.6-.38A3.6,3.6,0,0,0,7.93,9.87a3.53,3.53,0,0,0,2.85-1.39l.6.38A4.32,4.32,0,0,1,4.48,8.87Z"/><path class="cls-2" d="M5.35,3.74l-.54-.46a4.32,4.32,0,0,1,6.25,0l-.55.46a3.62,3.62,0,0,0-5.16,0Z"/><path class="cls-2" d="M7.93,7.61A1.35,1.35,0,1,1,9.28,6.27,1.33,1.33,0,0,1,7.93,7.61Zm1-1.34a1,1,0,0,0-2,0,1,1,0,0,0,1,1A1,1,0,0,0,8.94,6.27Z"/><path class="cls-2" d="M9.11,9.56a3.54,3.54,0,0,1-2.36,0l0,0a.67.67,0,0,0,.69-.72,2.78,2.78,0,0,0-.21-1.14L7.2,7.52a1.48,1.48,0,0,0,1.47,0l-.05.14a3,3,0,0,0-.23,1.11A.7.7,0,0,0,9.11,9.56Z"/><path class="cls-2" d="M2.19,6.22a5.81,5.81,0,0,0,.17,1.39L3.2,7a4.92,4.92,0,0,1,0-.67,4.8,4.8,0,1,1,9.59,0,4.63,4.63,0,0,1,0,.65l.92.65a5.53,5.53,0,0,0,.18-1.42,5.81,5.81,0,0,0-11.62,0Z"/><path class="cls-2" d="M13.43,8.11c-.08.2-.22.49-.39.84a17.42,17.42,0,0,1-2.74,3.83,26.57,26.57,0,0,1-2.39,2.4,24,24,0,0,1-2.38-2.4A16.77,16.77,0,0,1,3,9.18c-.23-.46-.4-.85-.51-1.13l.35-.24c.15-.1.29-.21.44-.3a4.81,4.81,0,0,0,9.32,0Z"/></svg>