<?xml version="1.0" encoding="utf-8"?>
<!-- Generator: Adobe Illustrator 25.2.1, SVG Export Plug-In . SVG Version: 6.00 Build 0)  -->
<svg version="1.1" id="Layer_1" xmlns="http://www.w3.org/2000/svg" xmlns:xlink="http://www.w3.org/1999/xlink" x="0px" y="0px"
	 viewBox="0 0 300 100" style="enable-background:new 0 0 300 100;" xml:space="preserve">
<style type="text/css">
	.st0{opacity:0.32;}
	.st1{fill:url(#SVGID_1_);}
	.st2{fill:#FFFFFF;}
	.st3{opacity:0.95;enable-background:new    ;}
	.st4{enable-background:new    ;}
	.st5{fill:#F73859;}
</style>
<g class="st0">
	<g transform="translate(-15.17 44)">
		
			<image style="overflow:visible;enable-background:new    ;" width="85" height="77" id="image" xlink:href="44E72E85.png"  transform="matrix(1 0 0 1 -15.17 44)">
		</image>
	</g>
</g>
<linearGradient id="SVGID_1_" gradientUnits="userSpaceOnUse" x1="24.49" y1="57.72" x2="29.94" y2="57.72" gradientTransform="matrix(1 0 0 -1 0 102)">
	<stop  offset="0" style="stop-color:#F73859"/>
	<stop  offset="1" style="stop-color:#D1334F"/>
</linearGradient>
<circle class="st1" cx="27.2" cy="44.3" r="2.7"/>
<path class="st2" d="M32.8,47.3c1.2-3,1-4.4-1.1-7.5l2.6,0.7l4.7,1.3c0.2,0.1,0.5,0.1,0.8,0.2c1.5,0.2,2.2-0.5,1.9-2
	c-0.5-2-1.5-3.9-2.8-5.4L38.3,34l3-2.5c5.7,5.6,7,16.3,1.4,23.8l-3.3-2.1c0.4-0.6,0.7-1.1,1-1.7c0.4-0.8,0.7-1.6,0.9-2.5
	c0.3-0.8-0.2-1.7-1-2c0,0-0.1,0-0.1,0c-2.3-0.7-4.7-0.7-6.9,0.1L32.8,47.3z"/>
<path class="st2" d="M15.1,53.2l-3.3,2.1c-5.3-7.3-4.7-17.2,1.4-23.8l3,2.5c-0.4,0.5-0.7,0.9-1,1.3c-1,1.3-1.8,2.8-2.2,4.5
	c-0.4,1.7,0.3,2.5,2,2.1c1.3-0.3,2.7-0.7,4-1.1l3.9-1c-2,2-2.4,5-1.2,7.4c-1-0.2-1.9-0.5-2.9-0.6c-1.4-0.2-2.9-0.1-4.3,0.3
	c-1.3,0.4-1.8,1.2-1.4,2.4c0.4,1.1,1,2.2,1.6,3.3C14.8,52.9,14.9,53.1,15.1,53.2z"/>
<path class="st2" d="M12.4,55.5l2.6-1.6c5.3,6.8,15.2,7.9,22,2.6c1-0.8,1.8-1.6,2.6-2.6l2.5,1.6C35.3,64.9,20.1,65.8,12.4,55.5z"/>
<path class="st2" d="M16.1,33.4l-2.3-2c7.1-7.4,18.8-7.7,26.2-0.7c0.2,0.2,0.4,0.4,0.7,0.7l-2.3,2c-6-6.1-15.9-6.2-22-0.2
	C16.3,33.3,16.2,33.4,16.1,33.4z"/>
<path class="st2" d="M27.2,50.1c-3.2,0-5.8-2.6-5.8-5.8s2.6-5.8,5.8-5.8c3.2,0,5.8,2.6,5.8,5.8c0,0,0,0,0,0
	C33,47.5,30.4,50.1,27.2,50.1C27.2,50.1,27.2,50.1,27.2,50.1z M31.6,44.3c0-2.4-1.9-4.4-4.3-4.4c-2.4,0-4.4,1.9-4.4,4.3
	c0,2.4,1.9,4.4,4.3,4.4c0,0,0,0,0,0C29.6,48.6,31.5,46.7,31.6,44.3z"/>
<path class="st2" d="M32.3,58.5c-3.3,1.2-6.9,1.2-10.1,0c0.1-0.1,0.1-0.1,0.1-0.1c1.6,0.1,2.9-1.2,3-2.8c0-0.1,0-0.2,0-0.3
	c0.1-1.7-0.3-3.4-0.9-4.9c-0.1-0.2-0.2-0.4-0.3-0.7c2,1.1,4.4,1.1,6.4,0c-0.1,0.3-0.2,0.5-0.2,0.6c-0.6,1.5-1,3.1-1,4.8
	C29.3,57.2,30.2,58.2,32.3,58.5z"/>
<path class="st2" d="M2.5,44.1c0,2,0.2,4,0.7,6l3.6-2.6c-0.1-1-0.2-1.9-0.2-2.9C6.7,33.2,15.9,24,27.3,24S48,33.2,48,44.6
	c0,0.9-0.1,1.9-0.2,2.8l4,2.8c3.3-13.4-4.9-26.9-18.3-30.2S6.5,24.9,3.2,38.3C2.8,40.2,2.5,42.1,2.5,44.1z"/>
<path class="st2" d="M50.9,52.2c-0.4,0.9-1,2.1-1.7,3.6c-3.2,6-7.1,11.6-11.8,16.5c-3.2,3.6-6.7,7.1-10.3,10.3
	c-3.6-3.2-7.1-6.6-10.2-10.3C12.6,67.7,9,62.4,6.1,56.8c-1-2-1.7-3.7-2.2-4.9c0.5-0.3,1-0.7,1.5-1s1.3-1,1.9-1.3
	c2.8,11.1,14,17.8,25.1,15c7.3-1.8,13.1-7.5,15-14.9L50.9,52.2z"/>
<g class="st3">
	<path class="st2" d="M66.9,40.3v7.6h13.3v5.4H66.9v10.5h-6.7V34.9h21.8v5.4H66.9z"/>
	<path class="st2" d="M86.6,34.9h6.7v23.4h14.5v5.4H86.6V34.9z"/>
	<path class="st2" d="M133.8,58.4v5.4h-22.3V34.9h21.8v5.4h-15.2v6.3h13.4v5.2h-13.4v6.7H133.8z"/>
	<path class="st2" d="M161.4,58.4v5.4h-22.3V34.9h21.8v5.4h-15.2v6.3h13.4v5.2h-13.4v6.7H161.4z"/>
</g>
<g class="st4">
	<path class="st2" d="M172.7,40.4h-9.2v-5.4h25.1v5.4h-9.2v23.4h-6.7V40.4z"/>
</g>
<g class="st4">
	<path class="st2" d="M212.9,58.3v5.4h-21.8v-4.3l11.1-10.5c2.6-2.4,3-3.9,3-5.3c0-2.3-1.6-3.6-4.6-3.6c-2.5,0-4.6,0.9-6,2.9
		l-4.9-3.1c2.2-3.3,6.3-5.4,11.5-5.4c6.4,0,10.7,3.3,10.7,8.5c0,2.8-0.8,5.4-4.8,9.1l-6.6,6.3H212.9z"/>
</g>
<g class="st4">
	<path class="st2" d="M241.6,57.7h-4.7v6.1h-6.5v-6.1h-15.5v-4.5l13.6-18.3h7l-12.6,17.3h7.7v-5.4h6.3v5.4h4.7V57.7z"/>
</g>
<g class="st4">
	<path class="st2" d="M258.4,63.8l-4.9-6.8l-5,6.8h-7l8.5-11.2l-8.2-11h7.2l4.7,6.5l4.8-6.5h6.8l-8.2,10.8l8.6,11.3H258.4z"/>
</g>
<g class="st4">
	<path class="st2" d="M289.9,34.9v4.3l-10.7,24.5h-7.3l10.3-23.4h-9.6v4.7h-5.9V34.9H289.9z"/>
</g>
<g class="st4">
	<path class="st5" d="M290.6,60.1c0-2.4,1.8-4,4-4s4,1.6,4,4c0,2.3-1.8,4-4,4S290.6,62.4,290.6,60.1z"/>
</g>
</svg>
