<?xml version="1.0" encoding="utf-8"?>
<!-- Generator: Adobe Illustrator 25.4.1, SVG Export Plug-In . SVG Version: 6.00 Build 0)  -->
<svg version="1.1" id="Layer_1" xmlns="http://www.w3.org/2000/svg" xmlns:xlink="http://www.w3.org/1999/xlink" x="0px" y="0px"
	 viewBox="0 0 100 23" style="enable-background:new 0 0 100 23;" xml:space="preserve">
<style type="text/css">
	.st0{opacity:0.57;}
	.st1{fill:url(#SVGID_00000005263338844506586520000002441874725584935065_);}
	.st2{fill:#10213A;}
	.st3{opacity:0.95;fill:#10213A;enable-background:new    ;}
	.st4{font-family:'Montserrat-Bold';}
	.st5{font-size:13.5237px;}
	.st6{fill:#F73859;}
</style>
<g>
	<g>
		<g class="st0">
			<defs>
				<rect id="SVGID_1_" x="1.5" y="17.3" class="st0" width="13.3" height="5.5"/>
			</defs>
			<clipPath id="SVGID_00000073690785631506610240000012521712028270742707_">
				<use xlink:href="#SVGID_1_"  style="overflow:visible;"/>
			</clipPath>
			<g style="clip-path:url(#SVGID_00000073690785631506610240000012521712028270742707_);enable-background:new    ;">
				
					<image style="overflow:visible;" width="85" height="77" xlink:href="15364BFF.png"  transform="matrix(0.3282 0 0 0.3282 -4.8098 8.6242)">
				</image>
			</g>
		</g>
		
			<linearGradient id="SVGID_00000042734206431872444170000016385285544820655270_" gradientUnits="userSpaceOnUse" x1="8.2084" y1="16.2839" x2="9.9974" y2="16.2839" gradientTransform="matrix(1 0 0 -1 0 25)">
			<stop  offset="0" style="stop-color:#F73859"/>
			<stop  offset="1" style="stop-color:#D1334F"/>
		</linearGradient>
		<circle style="fill:url(#SVGID_00000042734206431872444170000016385285544820655270_);" cx="9.1" cy="8.7" r="0.9"/>
		<path class="st2" d="M10.9,9.7c0.4-1,0.3-1.5-0.4-2.5l0.9,0.2L13,7.9c0.1,0,0.2,0,0.2,0.1c0.5,0.1,0.7-0.1,0.6-0.7
			c-0.2-0.7-0.5-1.3-0.9-1.8l-0.2-0.2l1-0.8c1.9,1.8,2.3,5.4,0.5,7.8l-1.1-0.7c0.1-0.2,0.2-0.4,0.3-0.6c0.1-0.3,0.2-0.5,0.3-0.8
			c0.1-0.3-0.1-0.6-0.3-0.7c0,0,0,0,0,0c-0.7-0.2-1.5-0.2-2.3,0L10.9,9.7z"/>
		<path class="st2" d="M5.1,11.7L4,12.3C2.3,10,2.5,6.7,4.5,4.5l1,0.8C5.4,5.5,5.2,5.6,5.1,5.8C4.8,6.2,4.6,6.7,4.4,7.2
			C4.3,7.8,4.5,8,5.1,7.9C5.5,7.8,6,7.7,6.4,7.6l1.3-0.3C7,7.9,6.9,8.9,7.3,9.7C7,9.6,6.6,9.5,6.3,9.5c-0.5-0.1-1,0-1.4,0.1
			C4.5,9.7,4.3,10,4.5,10.4c0.1,0.4,0.3,0.7,0.5,1.1C5,11.5,5.1,11.6,5.1,11.7z"/>
		<path class="st2" d="M4.2,12.4l0.9-0.5c1.8,2.2,5,2.6,7.2,0.8c0.3-0.2,0.6-0.5,0.8-0.8l0.8,0.5C11.8,15.5,6.8,15.8,4.2,12.4z"/>
		<path class="st2" d="M5.5,5.2L4.7,4.5C7,2.1,10.9,2,13.3,4.3c0.1,0.1,0.1,0.1,0.2,0.2l-0.8,0.7C10.8,3.1,7.5,3.1,5.5,5.2
			C5.5,5.1,5.5,5.1,5.5,5.2z"/>
		<path class="st2" d="M9.1,10.6c-1,0-1.9-0.8-1.9-1.9c0-1,0.8-1.9,1.9-1.9c1,0,1.9,0.8,1.9,1.9c0,0,0,0,0,0
			C11,9.8,10.2,10.6,9.1,10.6C9.1,10.6,9.1,10.6,9.1,10.6z M10.5,8.7c0-0.8-0.6-1.4-1.4-1.4c-0.8,0-1.4,0.6-1.4,1.4
			c0,0.8,0.6,1.4,1.4,1.4c0,0,0,0,0,0C9.9,10.1,10.5,9.5,10.5,8.7z"/>
		<path class="st2" d="M10.8,13.4c-1.1,0.4-2.2,0.4-3.3,0c0,0,0,0,0,0c0.5,0,1-0.4,1-0.9c0,0,0-0.1,0-0.1c0-0.6-0.1-1.1-0.3-1.6
			c0-0.1-0.1-0.1-0.1-0.2c0.6,0.4,1.4,0.4,2.1,0c0,0.1-0.1,0.1-0.1,0.2c-0.2,0.5-0.3,1-0.3,1.6C9.8,13,10.1,13.3,10.8,13.4z"/>
		<path class="st2" d="M1,8.7c0,0.7,0.1,1.3,0.2,2l1.2-0.8c0-0.3-0.1-0.6-0.1-0.9c0-3.7,3-6.8,6.8-6.8s6.8,3,6.8,6.8
			c0,0.3,0,0.6-0.1,0.9l1.3,0.9c1.1-4.4-1.6-8.8-6-9.9s-8.8,1.6-9.9,6C1.1,7.4,1,8,1,8.7z"/>
		<text transform="matrix(1 0 0 1 18.8286 15.1127)" class="st3 st4 st5">FLEE</text>
		<text transform="matrix(1 0 0 1 53.7832 15.1127)" class="st2 st4 st5">T</text>
		<text transform="matrix(1 0 0 1 62.4473 15.1127)" class="st2 st4 st5">2</text>
		<text transform="matrix(1 0 0 1 70.2949 15.1127)" class="st2 st4 st5">4</text>
		<text transform="matrix(1 0 0 1 79.3945 15.1127)" class="st2 st4 st5">x</text>
		<text transform="matrix(1 0 0 1 87.3867 15.1127)" class="st2 st4 st5">7</text>
		<text transform="matrix(1 0 0 1 95.1055 15.1127)" class="st6 st4 st5">.</text>
	</g>
	<path class="st2" d="M16.9,11.3c-0.1,0.3-0.3,0.7-0.6,1.2c-1,2-2.3,3.8-3.9,5.4c-1.1,1.2-2.2,2.3-3.4,3.4c-1.2-1-2.3-2.2-3.4-3.4
		c-1.4-1.5-2.6-3.2-3.5-5.1c-0.3-0.7-0.6-1.2-0.7-1.6c0.2-0.1,0.3-0.2,0.5-0.3s0.4-0.3,0.6-0.4c0.9,3.6,4.6,5.8,8.2,4.9
		c2.4-0.6,4.3-2.5,4.9-4.9L16.9,11.3z"/>
</g>
</svg>
